<?xml version="1.0" encoding="iso-8859-1"?>
<!-- Uploaded to: SVG Repo, www.svgrepo.com, Generator: SVG Repo Mixer Tools -->
<svg fill="#000000" height="800px" width="800px" version="1.1" id="Layer_1" xmlns="http://www.w3.org/2000/svg" xmlns:xlink="http://www.w3.org/1999/xlink" 
	 viewBox="0 0 512 512" xml:space="preserve">
<g>
	<g>
		<path d="M345.358,75.998C338.39,32.961,300.972,0,256,0c-44.971,0-82.388,32.961-89.355,75.998c-43.036,6.967-76,44.384-76,89.357
			c0,36.841,22.125,68.607,53.782,82.723l96.919,253.832C243.666,507.986,249.496,512,256,512c6.505,0,12.334-4.015,14.655-10.091
			l96.918-253.832c31.658-14.114,53.783-45.881,53.783-82.723C421.355,120.382,388.393,82.965,345.358,75.998z M256,452.336
			l-75.012-196.46h150.025L256,452.336z M330.836,224.502H181.166c-32.615,0-59.149-26.534-59.149-59.148
			c0-32.613,26.534-59.148,59.149-59.148c8.663,0,15.687-7.023,15.687-15.687c0-32.614,26.533-59.147,59.147-59.147
			s59.149,26.533,59.149,59.147c0,8.663,7.024,15.687,15.687,15.687c32.613,0,59.147,26.534,59.147,59.148
			C389.981,197.968,363.449,224.502,330.836,224.502z"/>
	</g>
</g>
</svg>